<svg xmlns="http://www.w3.org/2000/svg" aria-hidden="true" style="position:absolute;width:0;height:0;overflow:hidden">
  <defs>
    <symbol id="icon-Vector-3" viewBox="0 0 29 32">
      <path d="M27.75 13.653a1.99 1.99 0 0 0-1.334-.791 1.992 1.992 0 0 0-1.504.395l-1.406 1.078-2.131 1.591-1.525-.607c2.719-1.22 4.619-3.939 4.619-7.096 0-4.293-3.506-7.785-7.816-7.785S8.837 3.93 8.837 8.223c0 1.556.465 3.003 1.258 4.22l-3.103-.027h-.005c-.01 0-.017.005-.026.005a.556.556 0 0 0-.174.035c-.014.005-.029.008-.043.015l-.022.007-3.63 1.792-.001.001-2.126 1.022a.468.468 0 0 0-.071.04 2 2 0 0 0 .514 3.575 2.008 2.008 0 0 0 1.548-.144l1.558-.829 2.542-1.313 1.523-.009-6.11 6.081-.002.001-1.503 1.497c-.355.353-.55.822-.55 1.322s.195.97.55 1.323c.365.363.844.545 1.324.545s.959-.182 1.325-.545l1.476-1.47 1.955-1.459 1.011 1.007-1.978 1.97-.002.001-1.503 1.497c-.355.353-.55.822-.55 1.322s.195.97.55 1.323c.365.363.845.545 1.325.545s.96-.182 1.325-.545l3.909-3.892.001-.002 1.134-1.123-.004-.004c.007-.007.017-.01.025-.017l5.8-6.353 3.897.555a.583.583 0 0 0 .294-.037c.02-.007.037-.017.056-.026.022-.011.044-.017.065-.03l3.608-2.395c.013-.009.02-.023.033-.033.014-.011.032-.016.045-.029l1.428-1.337a1.998 1.998 0 0 0 .238-2.652zM2.392 17.707a.802.802 0 0 1-.627.058.802.802 0 0 1-.238-1.415l1.475-.71.504 1.474-1.114.592zm3.927-2.052-1.738.898-.493-1.441 2.276-1.123-.044 1.666zm16.953-7.434a6.515 6.515 0 0 1-.672 2.874l-4.695-2.132a2.088 2.088 0 0 0-.885-1.558l1.644-5.457c2.67.849 4.609 3.34 4.609 6.274zm-13.236 0c0-3.632 2.969-6.587 6.618-6.587.284 0 .562.024.837.059l-1.608 5.338c-.022-.001-.042-.007-.064-.007-1.159 0-2.102.94-2.102 2.096s.943 2.096 2.102 2.096c.78 0 1.453-.431 1.817-1.061l4.337 1.97a6.616 6.616 0 0 1-5.318 2.683c-3.649 0-6.618-2.955-6.618-6.587zm6.687.899c0 .495-.406.898-.905.898s-.905-.403-.905-.898.406-.898.905-.898.905.403.905.898zM2.768 25.989a.683.683 0 0 1-.959.001.667.667 0 0 1 0-.948l1.08-1.076.956.952-1.077 1.072zm3.608 4.192a.683.683 0 0 1-.96.001.667.667 0 0 1 0-.948l1.081-1.077.956.952-1.077 1.072zm3.909-3.895-.002.001-1.982 1.976-.956-.952 1.98-1.971v-.001l.002-.001c.045-.045.073-.099.101-.152.008-.016.023-.029.029-.045.019-.046.022-.096.029-.144.004-.028.016-.053.016-.081 0-.04-.014-.079-.023-.119-.007-.036-.007-.073-.021-.107a.64.64 0 0 0-.102-.155c-.011-.013-.016-.03-.028-.043h-.001l-.001-.002-1.804-1.796c-.019-.019-.044-.027-.065-.043a.575.575 0 0 0-.098-.065.57.57 0 0 0-.105-.037.553.553 0 0 0-.116-.022.634.634 0 0 0-.107.005.59.59 0 0 0-.117.023c-.038.012-.071.031-.106.05-.022.013-.047.017-.068.032l-1.991 1.486-1.011-1.007 2.694-2.679 4.896 4.815-1.041 1.032zm7.657-7.879c-.017-.002-.034.004-.051.003a.617.617 0 0 0-.336.085.521.521 0 0 0-.093.069c-.014.013-.032.019-.045.033l-5.275 5.778-4.86-4.779 3.181-3.164a.6.6 0 0 0-.426-1.022v-.001l-2.491.015.031-1.805 3.485.03a7.8 7.8 0 0 0 5.593 2.359c.491 0 .97-.051 1.437-.138.045.036.089.073.146.095l2.706 1.078.171.852.2.994-3.371-.48zm4.537.201-.352-1.749 1.624-1.213 1.063 1.411-2.335 1.551zm4.215-3.179-.941.882-1.046-1.388.934-.716a.811.811 0 0 1 1.149.158.802.802 0 0 1-.096 1.064z"/>
    </symbol>
    <symbol id="icon-Vector-2" viewBox="0 0 41 32">
      <path d="M2.047 31.732h32.751c1.13 0 2.047-.916 2.047-2.047v-2.729c0-1.13-.917-2.047-2.047-2.047h-.682V7.894l3.876-3.671a2.06 2.06 0 1 0-.955-.976l-2.92 2.768V4.441c0-1.13-.916-2.047-2.047-2.047H4.778c-1.13 0-2.047.917-2.047 2.047V24.91h-.682c-1.13 0-2.047.916-2.047 2.047v2.729c0 1.13.917 2.047 2.047 2.047zM38.892 1.711a.682.682 0 1 1 0 1.363.682.682 0 0 1 0-1.363zM4.094 4.44c0-.377.306-.682.682-.682h27.292c.377 0 .682.306.682.682v2.865l-1.365 1.297V5.804a.682.682 0 0 0-.682-.682H6.14a.682.682 0 0 0-.682.682v17.058c0 .377.306.682.682.682h24.563a.682.682 0 0 0 .682-.682V10.479l1.365-1.293v15.723H4.093V4.44zm6.141 8.87a2.045 2.045 0 0 0-1.051 3.807 2.047 2.047 0 0 0 2.468-.289l2.372 1.19c.276.138.61.073.815-.157l5.042-5.672 4.956 3.714a.683.683 0 0 0 .878-.05l4.307-4.08v10.408H6.823V6.488h23.199v3.405l-4.828 4.572-4.998-3.747a.682.682 0 0 0-.919.092l-5.111 5.751-1.911-.956c.014-.082.023-.165.026-.248 0-1.13-.917-2.047-2.047-2.047zm.682 2.047a.682.682 0 1 1-1.363 0 .682.682 0 0 1 1.363 0zm4.094 10.917h6.823v.682a.682.682 0 0 1-.682.682h-5.459a.682.682 0 0 1-.682-.682v-.682zm-13.646.682c0-.377.306-.682.682-.682h11.599v.682c0 1.13.916 2.047 2.047 2.047h5.459c1.13 0 2.047-.916 2.047-2.047v-.682h11.599c.377 0 .682.305.682.682v2.729a.682.682 0 0 1-.682.682H2.047a.682.682 0 0 1-.682-.682v-2.729z"/>
    </symbol>
    <symbol id="icon-Vector-1" viewBox="0 0 30 32">
      <path d="m29.773 22.098-8.443-8.505.937-4.615c.242.094.499.144.758.146h.006a2.159 2.159 0 1 0-2.008-1.435l-4.96.605L7.972.161a.534.534 0 0 0-.377-.16.532.532 0 0 0-.373.155L5.709 1.66a.534.534 0 0 0 0 .754l.814.826a14.943 14.943 0 0 0 2.519 17.663.513.513 0 0 0 .146.098c-.034.18-.051.364-.052.547v6.187h-6.4a2.67 2.67 0 0 0-2.667 2.667v1.067c0 .295.239.533.533.533h24.533a.533.533 0 0 0 .533-.533v-1.067a2.67 2.67 0 0 0-2.667-2.667h-6.4v-2.742a15.09 15.09 0 0 0 3.049.32 14.854 14.854 0 0 0 7.04-1.783l.818.823a.534.534 0 0 0 .377.16.532.532 0 0 0 .373-.155l1.513-1.504a.534.534 0 0 0 0-.754zM22.28 6.233a1.067 1.067 0 1 1 .753 1.822h-.003a1.067 1.067 0 0 1-.747-1.823h-.002zm-1.256 3.505-.598 2.946-1.175-1.182 1.774-1.763zm-.605-.902-1.92 1.909-1.485-1.493 3.405-.415zM23.004 28.8a1.6 1.6 0 0 1 1.6 1.6v.533H1.137V30.4a1.6 1.6 0 0 1 1.6-1.6h20.267zm-7.467-2.133v1.067h-5.333v-1.067h5.333zM10.204 25.6v-4.053c0-1.294 1.196-2.347 2.667-2.347s2.667 1.053 2.667 2.347V25.6h-5.333zm6.4-1.696v-2.357c0-1.882-1.675-3.413-3.733-3.413A3.8 3.8 0 0 0 9.59 19.92 13.87 13.87 0 0 1 7.311 4.033l18.602 18.708a13.818 13.818 0 0 1-9.309 1.163zm11.289-.684L6.836 2.039l.755-.752 7.935 7.98c.004 0 .006.007.01.01l13.115 13.191-.757.752z"/>
    </symbol>
    <symbol id="icon-Vector" viewBox="0 0 31 32">
      <path d="M30.797 15.301C30.795 6.849 23.942-.002 15.489 0S.186 6.855.188 15.308a15.304 15.304 0 0 0 10.649 14.576.662.662 0 0 0 .529-.065.637.637 0 0 0 .283-.356l3.865-12.25a1.912 1.912 0 1 0-.84-3.635L9.568 8.471a.637.637 0 0 0-.902.902l5.103 5.109a1.876 1.876 0 0 0 .536 2.309l-3.683 11.673C3.344 25.783-.382 17.71 2.299 10.432S13.053-.572 20.331 2.109c7.278 2.681 11.004 10.754 8.323 18.032a14.042 14.042 0 0 1-7.462 7.973l-.398-1.874a.637.637 0 0 0-1.049-.344l-3.837 3.426a.637.637 0 0 0 .231 1.084l4.899 1.564a.638.638 0 0 0 .819-.74l-.391-1.839a15.255 15.255 0 0 0 9.329-14.089zm-15.305-.637a.638.638 0 1 1 0 1.277.638.638 0 0 1 0-1.277zm2.101 14.864 2.184-1.948.603 2.84-2.787-.892z"/>
    </symbol>
  </defs>
</svg>
